Normalized EMG Linear Envelopes
nRows=21
nColumns=17

endheader
time	        VM	        VL	        RF	       GRA	        TA	   ADDLONG	   SEMIMEM	      BFLH	        GM	        GL	       TFL	   GLUTMAX	   GLUTMED	      PIRI	    OBTINT	        QF	
2.02	  0.300617	  0.252244	  0.050021	  0.149225	  0.120987	  0.045451	  0.340501	  0.374537	  0.796401	  0.629935	  0.109172	  0.229197	  0.238771	  0.840483	  1.265915	  0.556155	
2.0205	  0.294895	  0.247960	  0.049296	  0.148020	  0.119976	  0.045337	  0.338095	  0.371399	  0.793969	  0.628530	  0.108755	  0.225084	  0.238626	  0.837555	  1.259463	  0.549053	
2.021	  0.289213	  0.243701	  0.048577	  0.146817	  0.118967	  0.045232	  0.335662	  0.368236	  0.791430	  0.627037	  0.108335	  0.220999	  0.238531	  0.834545	  1.252994	  0.542033	
2.0215	  0.283574	  0.239468	  0.047862	  0.145617	  0.117959	  0.045133	  0.333203	  0.365050	  0.788787	  0.625457	  0.107914	  0.216942	  0.238485	  0.831454	  1.246509	  0.535100	
2.022	  0.277978	  0.235261	  0.047154	  0.144420	  0.116952	  0.045043	  0.330718	  0.361844	  0.786040	  0.623792	  0.107490	  0.212913	  0.238491	  0.828285	  1.240013	  0.528254	
2.0225	  0.272426	  0.231079	  0.046451	  0.143226	  0.115948	  0.044960	  0.328209	  0.358619	  0.783191	  0.622042	  0.107064	  0.208915	  0.238550	  0.825037	  1.233510	  0.521498	
2.023	  0.266920	  0.226923	  0.045753	  0.142035	  0.114945	  0.044886	  0.325677	  0.355376	  0.780242	  0.620210	  0.106635	  0.204947	  0.238662	  0.821714	  1.227004	  0.514834	
2.0235	  0.261462	  0.222794	  0.045062	  0.140849	  0.113944	  0.044820	  0.323122	  0.352118	  0.777194	  0.618296	  0.106203	  0.201010	  0.238828	  0.818317	  1.220500	  0.508265	
2.024	  0.256051	  0.218692	  0.044376	  0.139666	  0.112945	  0.044762	  0.320545	  0.348845	  0.774049	  0.616302	  0.105768	  0.197104	  0.239050	  0.814846	  1.214002	  0.501793	
2.0245	  0.250689	  0.214617	  0.043695	  0.138489	  0.111948	  0.044713	  0.317947	  0.345560	  0.770806	  0.614230	  0.105330	  0.193231	  0.239328	  0.811305	  1.207514	  0.495419	
2.025	  0.245378	  0.210569	  0.043021	  0.137315	  0.110954	  0.044672	  0.315329	  0.342264	  0.767468	  0.612079	  0.104889	  0.189391	  0.239664	  0.807694	  1.201043	  0.489146	
2.0255	  0.240117	  0.206550	  0.042353	  0.136147	  0.109961	  0.044641	  0.312692	  0.338957	  0.764035	  0.609853	  0.104444	  0.185584	  0.240058	  0.804016	  1.194591	  0.482976	
2.026	  0.234908	  0.202559	  0.041690	  0.134985	  0.108971	  0.044619	  0.310036	  0.335641	  0.760508	  0.607550	  0.103996	  0.181811	  0.240511	  0.800272	  1.188164	  0.476909	
2.0265	  0.229751	  0.198598	  0.041034	  0.133827	  0.107984	  0.044606	  0.307362	  0.332318	  0.756888	  0.605175	  0.103544	  0.178073	  0.241023	  0.796463	  1.181766	  0.470948	
2.027	  0.224648	  0.194666	  0.040383	  0.132676	  0.106998	  0.044603	  0.304671	  0.328988	  0.753176	  0.602727	  0.103088	  0.174370	  0.241596	  0.792591	  1.175401	  0.465094	
2.0275	  0.219598	  0.190766	  0.039739	  0.131531	  0.106016	  0.044609	  0.301964	  0.325652	  0.749373	  0.600208	  0.102628	  0.170703	  0.242230	  0.788659	  1.169074	  0.459348	
2.028	  0.214603	  0.186898	  0.039100	  0.130392	  0.105035	  0.044625	  0.299242	  0.322311	  0.745483	  0.597622	  0.102165	  0.167073	  0.242927	  0.784668	  1.162788	  0.453712	
2.0285	  0.209663	  0.183062	  0.038468	  0.129261	  0.104058	  0.044650	  0.296505	  0.318966	  0.741506	  0.594970	  0.101697	  0.163480	  0.243686	  0.780619	  1.156547	  0.448186	
2.029	  0.204779	  0.179259	  0.037842	  0.128136	  0.103084	  0.044686	  0.293754	  0.315618	  0.737444	  0.592253	  0.101226	  0.159924	  0.244510	  0.776515	  1.150354	  0.442771	
2.0295	  0.199951	  0.175490	  0.037222	  0.127019	  0.102113	  0.044731	  0.290989	  0.312267	  0.733299	  0.589474	  0.100751	  0.156406	  0.245399	  0.772357	  1.144212	  0.437468	
2.03	  0.195180	  0.171756	  0.036608	  0.125909	  0.101145	  0.044787	  0.288212	  0.308913	  0.729073	  0.586634	  0.100273	  0.152927	  0.246354	  0.768146	  1.138125	  0.432278	
